<?xml version="1.0" encoding="utf-8"?>
<!-- Generator: Adobe Illustrator 18.1.1, SVG Export Plug-In . SVG Version: 6.00 Build 0)  -->
<svg version="1.1" id="Layer_1" xmlns="http://www.w3.org/2000/svg" xmlns:xlink="http://www.w3.org/1999/xlink" x="0px" y="0px"
	 viewBox="0 0 850.4 850.4" enable-background="new 0 0 850.4 850.4" xml:space="preserve">
<path fill="#FFFFFF" d="M266.2,222.6h66.1l-54.7,64.9l-49.6,58.9h-5.3v-80.3C222.6,242.1,242.1,222.6,266.2,222.6z"/>
<path fill="#FFFFFF" d="M627.8,266.2v80.3h-5.3l-49.6-58.9l-54.7-64.9h66.1C608.3,222.6,627.8,242.1,627.8,266.2z"/>
<path fill="#FFFFFF" d="M705.1,315.3c-0.9,17.5-15.5,31.2-33.1,31.2h-49.5l-49.6-58.9l-54.7-64.9l-92.9-110.3l-92.9,110.3
	l-54.7,64.9l-49.6,58.9h-49.5c-17.6,0-32.2-13.7-33.1-31.2c-0.6-12.9,4-26,13.8-35.8L368.2,70.4c31.5-31.5,82.5-31.5,113.9,0
	l209.1,209.1C701.1,289.3,705.7,302.4,705.1,315.3z"/>
<polygon fill="#FFFFFF" points="627.8,346.5 627.8,627.8 498.2,627.8 498.2,425.2 352.2,425.2 352.2,627.8 222.6,627.8 222.6,346.5 
	227.9,346.5 277.6,287.6 332.3,222.6 425.2,112.3 518.1,222.6 572.8,287.6 622.5,346.5 "/>
</svg>
